# Blender v2.76 (sub 0) OBJ File: ''
# www.blender.org
mtllib slopeModel.mtl
o Cube.001
v 1.918666 -0.379342 0.773897
v -0.699583 -0.379342 0.773897
v -0.699582 -0.379342 -0.773897
v -0.699583 0.569014 -0.773896
v -0.699583 0.569014 0.773896
v 1.918665 0.569014 0.773897
v 1.918666 0.569014 -0.773896
v 1.918666 -0.379342 -0.773896
v -2.438166 -0.379342 0.773896
v -2.438166 -0.379342 -0.773897
vt 0.000000 0.000000
vt 1.000000 0.000000
vt 1.000000 1.000000
vn 0.000000 -1.000000 -0.000000
vn -0.000000 1.000000 0.000000
vn 1.000000 0.000000 0.000000
vn -0.000000 0.000000 1.000000
vn 0.000000 0.000000 -1.000000
vn -0.478900 0.877900 0.000000
usemtl None
s 1
f 1/1/1 2/2/1 3/3/1
f 4/1/2 5/2/2 6/3/2
f 7/1/3 6/2/3 1/3/3
f 6/1/4 5/2/4 2/3/4
f 8/1/5 3/2/5 4/3/5
f 5/1/4 9/2/4 2/3/4
f 4/1/5 3/2/5 10/3/5
f 2/1/1 9/2/1 10/3/1
f 10/1/6 9/2/6 5/3/6
f 8/1/1 1/2/1 3/3/1
f 7/1/2 4/2/2 6/3/2
f 8/1/3 7/2/3 1/3/3
f 1/1/4 6/2/4 2/3/4
f 7/1/5 8/2/5 4/3/5
f 3/1/1 2/2/1 10/3/1
f 4/1/6 10/2/6 5/3/6
